<svg xmlns="http://www.w3.org/2000/svg" viewBox="0 0 320 240" role="img" aria-label="OverWatch ELD System logo"><defs><linearGradient id="blue" x1="0" y1="0" x2="1" y2="1"><stop offset="0" stop-color="#5ad8ff"/><stop offset="0.45" stop-color="#0098ff"/><stop offset="1" stop-color="#004c9b"/></linearGradient><linearGradient id="silver" x1="0" y1="0" x2="0" y2="1"><stop offset="0" stop-color="#ffffff"/><stop offset="0.55" stop-color="#cfd8e6"/><stop offset="1" stop-color="#6e7b8e"/></linearGradient><filter id="glow" x="-40%" y="-40%" width="180%" height="180%"><feGaussianBlur stdDeviation="3" result="b"/><feMerge><feMergeNode in="b"/><feMergeNode in="SourceGraphic"/></feMerge></filter></defs><rect width="320" height="240" fill="none"/><g filter="url(#glow)"><path d="M46 137C70 71 128 39 196 47c51 6 90 35 108 83" fill="none" stroke="#00aaff" stroke-width="5" opacity=".9"/><path d="M55 139c46-21 90-32 151-24 33 4 61 13 88 28" fill="none" stroke="#7de6ff" stroke-width="3" opacity=".75"/><path d="M69 116h18l20-34h80c24 0 46 14 54 34h18l16 31H51z" fill="url(#blue)" stroke="#d8f7ff" stroke-width="3"/><path d="M92 119h63l12-20h-61z" fill="#051a2e" stroke="#9beaff" stroke-width="2"/><path d="M174 99h28c12 1 22 8 28 20h-64z" fill="#061a2a" stroke="#9beaff" stroke-width="2"/><circle cx="103" cy="150" r="14" fill="#0b1118" stroke="#d8f7ff" stroke-width="4"/><circle cx="226" cy="150" r="14" fill="#0b1118" stroke="#d8f7ff" stroke-width="4"/><path d="M238 57l21-18 27 10-17 22z" fill="#bfc7d4" stroke="#fff" stroke-width="2"/><path d="M271 30l34-20 12 18-35 20z" fill="url(#blue)" stroke="#86dbff" stroke-width="2"/><path d="M198 181h-50l-12 20-12-12-10 23-18-31H55" fill="none" stroke="#00cfff" stroke-width="5" stroke-linejoin="round"/></g><text x="160" y="185" text-anchor="middle" font-family="Arial Black, Impact, sans-serif" font-size="73" font-weight="900" fill="url(#silver)" stroke="#07111f" stroke-width="5" paint-order="stroke">ELD</text><text x="160" y="218" text-anchor="middle" font-family="Arial Black, Arial, sans-serif" font-size="26" letter-spacing="5" fill="#5ad8ff" stroke="#05223f" stroke-width="2" paint-order="stroke">SYSTEM</text></svg>